<?xml version="1.0"?>
<svg width="512" height="512" xmlns="http://www.w3.org/2000/svg" xmlns:svg="http://www.w3.org/2000/svg">
 <style type="text/css">.st0{fill:url(#SVGID_1_);}
	.st1{fill:url(#SVGID_2_);}
	.st2{fill:#654C9F;}</style>
 <g class="layer">
  <title>Layer 1</title>
  <g id="Edges"/>
  <radialGradient cx="56.3501" cy="19.2179" gradientTransform="matrix(0.9986 -5.233596e-02 4.448556e-02 0.8488 -36.9742 443.8014)" gradientUnits="userSpaceOnUse" id="SVGID_1_" r="711.335">
   <stop offset="0" stop-color="#FED576"/>
   <stop offset="0.2634" stop-color="#F47133"/>
   <stop offset="0.6091" stop-color="#BC3081"/>
   <stop offset="1" stop-color="#4C63D2"/>
  </radialGradient>
  <radialGradient cx="154.0732" cy="134.5501" gradientTransform="matrix(0.9986 -5.233596e-02 4.448556e-02 0.8488 -24.3617 253.2946)" gradientUnits="userSpaceOnUse" id="SVGID_2_" r="365.2801">
   <stop offset="0" stop-color="#FED576"/>
   <stop offset="0.2634" stop-color="#F47133"/>
   <stop offset="0.6091" stop-color="#BC3081"/>
   <stop offset="1" stop-color="#4C63D2"/>
  </radialGradient>
  <g id="svg_5">
   <path d="m96.1,23.2c-16.2,6.3 -29.9,14.7 -43.6,28.4c-13.7,13.6 -22.1,27.4 -28.4,43.5c-6.1,15.6 -10.2,33.5 -11.4,59.7c-1.2,26.2 -1.5,34.6 -1.5,101.4s0.3,75.2 1.5,101.4c1.2,26.2 5.4,44.1 11.4,59.7c6.3,16.2 14.7,29.9 28.4,43.6c13.7,13.7 27.4,22.1 43.6,28.4c15.6,6.1 33.5,10.2 59.7,11.4c26.2,1.2 34.6,1.5 101.4,1.5c66.8,0 75.2,-0.3 101.4,-1.5c26.2,-1.2 44.1,-5.4 59.7,-11.4c16.2,-6.3 29.9,-14.7 43.6,-28.4c13.7,-13.7 22.1,-27.4 28.4,-43.6c6.1,-15.6 10.2,-33.5 11.4,-59.7c1.2,-26.2 1.5,-34.6 1.5,-101.4s-0.3,-75.2 -1.5,-101.4c-1.2,-26.2 -5.4,-44.1 -11.4,-59.7c-6.3,-16.1 -14.7,-29.9 -28.3,-43.5c-13.7,-13.7 -27.4,-22.1 -43.6,-28.4c-15.6,-6.1 -33.5,-10.2 -59.7,-11.4c-26.2,-1.2 -34.6,-1.5 -101.4,-1.5s-75.2,0.3 -101.4,1.5c-26.3,1.1 -44.2,5.3 -59.8,11.4zm260.5,32.8c24,1.1 37,5.1 45.7,8.5c11.5,4.5 19.7,9.8 28.3,18.4c8.6,8.6 13.9,16.8 18.4,28.3c3.4,8.7 7.4,21.7 8.5,45.7c1.2,25.9 1.4,33.7 1.4,99.4s-0.3,73.5 -1.4,99.4c-1.1,24 -5.1,37 -8.5,45.7c-4.5,11.5 -9.8,19.7 -18.4,28.3c-8.6,8.6 -16.8,13.9 -28.3,18.4c-8.7,3.4 -21.7,7.4 -45.7,8.5c-25.9,1.2 -33.7,1.4 -99.4,1.4s-73.5,-0.3 -99.4,-1.4c-24,-1.1 -37,-5.1 -45.7,-8.5c-11.5,-4.5 -19.7,-9.8 -28.3,-18.4c-8.6,-8.6 -13.9,-16.8 -18.4,-28.3c-3.4,-8.7 -7.4,-21.7 -8.5,-45.7c-1.2,-25.9 -1.4,-33.7 -1.4,-99.4s0.3,-73.5 1.4,-99.4c1.1,-24 5.1,-37 8.5,-45.7c4.5,-11.5 9.8,-19.7 18.4,-28.3c8.6,-8.6 16.8,-13.9 28.3,-18.4c8.7,-3.4 21.7,-7.4 45.7,-8.5c25.9,-1.2 33.7,-1.4 99.4,-1.4s73.5,0.2 99.4,1.4z" fill="#ffffff" id="svg_2"/>
   <path d="m130.9,256.3c0,69.8 56.6,126.3 126.3,126.3s126.3,-56.6 126.3,-126.3s-56.5,-126.3 -126.3,-126.3s-126.3,56.5 -126.3,126.3zm208.3,0c0,45.3 -36.7,82 -82,82s-82,-36.7 -82,-82c0,-45.3 36.7,-82 82,-82s82,36.7 82,82z" fill="#ffffff" id="svg_3"/>
   <circle cx="388.6" cy="125" fill="#ffffff" id="svg_4" r="29.5"/>
  </g>
 </g>
</svg>